<svg width="35" height="35" viewBox="0 0 35 35" fill="none" xmlns="http://www.w3.org/2000/svg">
<g clip-path="url(#clip0_52_51)">
<path d="M34.5846 10.2901C34.5043 8.43041 34.2101 7.15189 33.7886 6.04404C33.3537 4.86808 32.6848 3.81525 31.8083 2.94003C30.9519 2.05118 29.915 1.36051 28.7778 0.923032C27.6875 0.49223 26.4431 0.191497 24.6235 0.109503C22.7904 0.0205652 22.2084 0 17.559 0C12.9096 0 12.3276 0.0205652 10.5013 0.102559C8.68169 0.184553 7.43075 0.485553 6.34705 0.916088C5.19619 1.36051 4.16607 2.04424 3.30972 2.94003C2.44005 3.81525 1.76453 4.87503 1.33623 6.03736C0.914719 7.15189 0.620472 8.42347 0.540247 10.2832C0.453227 12.1567 0.433105 12.7515 0.433105 17.5034C0.433105 22.2553 0.453227 22.8501 0.533453 24.7167C0.613678 26.5764 0.908186 27.8549 1.3297 28.9628C1.76453 30.1388 2.44005 31.1916 3.30972 32.0668C4.16607 32.9557 5.20299 33.6463 6.34026 34.0838C7.43075 34.5146 8.67489 34.8153 10.4947 34.8973C12.3208 34.9796 12.9031 34.9999 17.5525 34.9999C22.2019 34.9999 22.7838 34.9796 24.6102 34.8973C26.4298 34.8153 27.6807 34.5146 28.7644 34.0838C31.0659 33.1744 32.8855 31.3147 33.7752 28.9628C34.1965 27.8483 34.491 26.5764 34.5712 24.7167C34.6515 22.8501 34.6716 22.2553 34.6716 17.5034C34.6716 12.7515 34.6648 12.1567 34.5846 10.2901ZM31.5007 24.58C31.427 26.2893 31.1461 27.2123 30.912 27.8277C30.3365 29.3525 29.1525 30.5626 27.6606 31.1507C27.0585 31.39 26.1489 31.6771 24.483 31.7522C22.6767 31.8344 22.135 31.8547 17.5658 31.8547C12.9966 31.8547 12.4481 31.8344 10.6484 31.7522C8.97593 31.6771 8.07281 31.39 7.47073 31.1507C6.72832 30.8703 6.05254 30.4259 5.50403 29.8447C4.9354 29.2771 4.50056 28.5934 4.22617 27.8346C3.99203 27.2193 3.71111 26.2893 3.63768 24.5869C3.55719 22.7409 3.53733 22.187 3.53733 17.517C3.53733 12.8471 3.55719 12.2865 3.63768 10.4474C3.71111 8.73809 3.99203 7.81506 4.22617 7.1997C4.50056 6.44066 4.9354 5.75025 5.51082 5.18938C6.06587 4.60821 6.73485 4.16379 7.47752 3.88362C8.0796 3.64432 8.98952 3.35721 10.6552 3.28189C12.4614 3.1999 13.0034 3.17933 17.5723 3.17933C22.1483 3.17933 22.69 3.1999 24.4897 3.28189C26.1622 3.35721 27.0653 3.64432 27.6674 3.88362C28.4098 4.16379 29.0856 4.60821 29.6341 5.18938C30.2027 5.75693 30.6376 6.44066 30.912 7.1997C31.1461 7.81506 31.427 8.74477 31.5007 10.4474C31.5809 12.2935 31.6011 12.8471 31.6011 17.517C31.6011 22.187 31.5809 22.7339 31.5007 24.58Z" fill="#31211A"/>
<path d="M17.5586 8.51221C12.7019 8.51221 8.76147 12.5393 8.76147 17.5032C8.76147 22.4672 12.7019 26.4942 17.5586 26.4942C22.4155 26.4942 26.3557 22.4672 26.3557 17.5032C26.3557 12.5393 22.4155 8.51221 17.5586 8.51221ZM17.5586 23.3355C14.4078 23.3355 11.8521 20.7237 11.8521 17.5032C11.8521 14.2828 14.4078 11.671 17.5586 11.671C20.7096 11.671 23.265 14.2828 23.265 17.5032C23.265 20.7237 20.7096 23.3355 17.5586 23.3355Z" fill="#31211A"/>
<path d="M28.7576 8.15709C28.7576 9.31623 27.838 10.2561 26.7036 10.2561C25.5695 10.2561 24.6499 9.31623 24.6499 8.15709C24.6499 6.9977 25.5695 6.05811 26.7036 6.05811C27.838 6.05811 28.7576 6.9977 28.7576 8.15709Z" fill="#31211A"/>
</g>
<defs>
<clipPath id="clip0_52_51">
<rect width="34.2451" height="35" fill="white" transform="translate(0.372559)"/>
</clipPath>
</defs>
</svg>
