<svg width="35" height="35" viewBox="0 0 35 35" fill="none" xmlns="http://www.w3.org/2000/svg">
<path d="M26.3912 0H9.33653C4.61119 0 0.754883 3.94444 0.754883 8.77778V26.25C0.754883 31.0556 4.61119 35 9.33653 35H26.4184C31.1437 35 35 31.0556 35 26.2222V8.77778C34.9729 3.94444 31.1165 0 26.3912 0ZM26.364 13.1111C26.364 13.3056 26.364 13.5 26.364 13.6944C26.364 19.5278 21.9646 26.25 13.8989 26.25C11.4276 26.25 9.11928 25.5278 7.19112 24.2778C7.54416 24.3056 7.87005 24.3333 8.22309 24.3333C10.287 24.3333 12.1609 23.6389 13.6545 22.4444C11.7264 22.4167 10.1241 21.1389 9.55379 19.3889C9.82536 19.4444 10.0969 19.4722 10.3685 19.4722C10.7759 19.4722 11.1832 19.4167 11.5363 19.3056C9.58095 18.8889 8.08731 17.1111 8.08731 14.9722V14.9167C8.63045 15.25 9.33653 15.4444 10.0426 15.4722C8.87486 14.6944 8.08731 13.3333 8.08731 11.8056C8.08731 11 8.30456 10.25 8.68476 9.58333C10.8573 12.25 14.0619 14 17.7009 14.1944C17.6195 13.8611 17.5923 13.5278 17.5923 13.1944C17.5923 10.75 19.5476 8.77778 21.9646 8.77778C23.2138 8.77778 24.3544 9.30556 25.1691 10.1667C26.174 9.97222 27.0973 9.61111 27.9392 9.08333C27.6133 10.1111 26.9072 10.9722 26.011 11.5278C26.9072 11.4167 27.7491 11.1944 28.5366 10.8333C27.9392 11.7222 27.2059 12.5 26.364 13.1111Z" fill="#31211A"/>
</svg>
