<svg id="Layer_1" data-name="Layer 1" xmlns="http://www.w3.org/2000/svg" viewBox="0 0 512 512"><defs><style>.cls-1{fill:#707070;}</style></defs><title>coffee-1-handdrawn</title><path class="cls-1" d="M417.14,122.87c.2,0,.39,0,.59,0l-3.46,23.77a18.33,18.33,0,0,1-1.13,4.91l3.19-28.69C416.6,122.84,416.86,122.87,417.14,122.87ZM69.93,69.8v0Zm.22-2c-.13.66-.14,1.35-.22,2,.1-.9.21-1.71.34-2.51ZM455.79,78.74l-.06,4.84a46.09,46.09,0,0,1-.94,8.58,42,42,0,0,1-7.42,16.28,40.86,40.86,0,0,1-17.52,13.37l-.32,3-4.15,34.81-8,68.32c0-2.19,0-4.33-.05-7-8,71.14-5.72,42.29-6.13,39.28l-8.29,76.48C398.61,374.79,394.3,415,390,448.41a73.31,73.31,0,0,1-5.69,19.86,68.49,68.49,0,0,1-14,20.23,64.7,64.7,0,0,1-16.11,11.78,66.36,66.36,0,0,1-17.81,6.4,66.9,66.9,0,0,0,20.83-8.85c-11.69,6.83-22,8.42-25.63,8.67-1.83.15-2.05.06-.3-.31a74.16,74.16,0,0,0,11.31-3.08c5.29-1.93-.83-.1.26-.66,1.36-.83,4.85-1.8,12.92-6.76a72,72,0,0,0,14.45-12.42,65.39,65.39,0,0,0,14.36-27.1,68.36,68.36,0,0,0,1.76-9.76l.83-8.76.77-9.4-5.32,0-.87,8c-.84,6.75-1.1,13.8-3.23,20.58a59.49,59.49,0,0,1-30.87,36.4,54.51,54.51,0,0,1-17.28,5.18c-8.72.87-10.88.29-6.72-.13,6.06-.72,9.14-2.06,13.84-3.82A55,55,0,0,0,358.16,483c3.83-3.55,5-5.24,3-3.59a55.72,55.72,0,0,0,15.94-32.29l2.1-18.86-6.09,0,.76-.1c-1.77-.07-3.52-.19-5.31-.19q-18.09,0-36.19,0c-1.59,0-3.26,0-4.78,0-6.22-.09-8-.08-7.3.27,1.27.64-5.67.71-10.5.87-12.74.44-26.46.65-40.12.9-10.91.2-22.5.18-32.95.51-2,.06-4.64,0-7,0-9.63,0-18.8-.37-28.77-.15a49.27,49.27,0,0,1-5.13-.26,11.14,11.14,0,0,1-2.56-.78l-6.84-.12,2.17-.25c-5.57.07-10.3.18-14.95.16s-9.15-.16-14.23-.26l-.87.38-9.78-.05L150,440.06l11.21.72-1,.18c-3.11,0-6.27,0-9.32,0h-.76l.24,2.22a48,48,0,0,0,3.37,13.55A43.81,43.81,0,0,0,171.49,477a41.19,41.19,0,0,0,12.63,5,37.36,37.36,0,0,0,6.72,1c1.24,0,2,.16,3.63.16l4.51,0,35.6.25c43.94.46,59.49,1.5,24.33,2.12l-23.37.18-32.73-.1-8.33,0a52.52,52.52,0,0,1-6.86-.47,42.24,42.24,0,0,1-13.12-3.83,42.07,42.07,0,0,0,5.65,1.69,39.47,39.47,0,0,1-5.51-2,44.68,44.68,0,0,1-17.82-15.45,40.76,40.76,0,0,1-5.23-10.56,45.14,45.14,0,0,1-1.55-5.68c-.22-1-.28-1.95-.44-2.92s-.29-1.9-.4-3.29L149,441c-5.71,0-11.47,0-17.21-.06-.08-.66-.2-1.31-.29-2l.4,0,6.24.4-1.1-8.92c-.26.65,0,5.85-.82.16-.25-1.67-.69-5.14-1.21-9.46h-1.38l-4.58.06,1.77,16c.85,8,1.57,17.22,5.12,25.86-2.81-6.45-4-14-4.67-20.46L129,422.79l-.19-1.64h-.37l3.18,29.6a59.21,59.21,0,0,0,7,20.12,62.48,62.48,0,0,0,43.63,30.94,76,76,0,0,0,12.33,1l11.43,0c15.07,0,29.16.08,38.77.38,7.22.23,1.17.58,1.17.86h75.59l-36.36,2.14,15.12.14c-45,.21-22.69,1.13-59.54,1.46l35.76.33c-11.75.29-25.67.5-18.85,1,5.32.37-16.92.84-24.28,1.27-3,.18,3.06.39,1.43.58a96.36,96.36,0,0,1-12.48.65l-24.9.39a84.74,84.74,0,0,1-16.53-1,70.33,70.33,0,0,1-22.25-8.1c-3-1.35-10.36-6.66-14.22-10.31a71.93,71.93,0,0,1-21.82-39l-.88-5.55-.52-4.54-1-8.93-2-17.83L110.53,345l-10.85-98.8L86.5,129.91,86,125.77A45.33,45.33,0,0,1,65.66,111a44.87,44.87,0,0,1-7.35-13.91,47,47,0,0,1-1.72-7.72,31.26,31.26,0,0,1-.35-3.93l-.08-2V82l0-5.52.34-6.66a79.77,79.77,0,0,1,2.44-13.13A76.78,76.78,0,0,1,89.24,14c5.68-3.82,12.8-7.58,18.13-9.29A78.4,78.4,0,0,1,134,.12h23.27c15.39.06,30.05.24,41.23.52,9.36.24,26.62.25,40.28.36L237.38.8c4.58-.24,7-.62,14.22-.7C265.95-.06,281.18,0,296,.29l44,.42-4.43.82c45.78.14,27.28,1,25.4,1.75l12.88-.07c4.31,0,8-.17,13.13.15a72.5,72.5,0,0,1,27.24,7A73.3,73.3,0,0,1,446,39.74,72.32,72.32,0,0,1,455.79,78.74ZM71.46,62.66A63.89,63.89,0,0,1,82.09,39a56.37,56.37,0,0,0-10.31,19.9,61,61,0,0,0-2.4,14.86c-.16,2.65-.12,5.26-.07,7.9a41.79,41.79,0,0,0,.31,4.85c-.27-2.89-.16-5.64-.2-8.21.11-2.83.18-5.6.49-8.33a109,109,0,0,0-.29,13.63c-.07-5.43.19-9.75.46-13.18C70.68,67,70.89,64.48,71.46,62.66Zm56.45,395.92a91.42,91.42,0,0,1-2.76-16.09l-6.29-58.07-.81-5.77c.44,5.18.7,9.65,1.36,15.67l6,53.22a74.43,74.43,0,0,0,4.71,18.21A75.4,75.4,0,0,0,139.56,482a69.81,69.81,0,0,0,16.57,15.26,24.82,24.82,0,0,0,2.55,1.35,68.24,68.24,0,0,1-24-24.2A66.71,66.71,0,0,1,127.91,458.58Zm-.14-46.65-3.27-28.69-.14.07,2.85,26.3.25,2.33Zm5.16.18,1,0c-.64-5.42-1.3-11.16-1.86-16.12-1.52-13.42-2.14-19.15-2.86-23-.52-2.8-2.63-20.5-4-31.63-3.47-27.35-3-18.28-3.74-19.94-.25-.58-.27.93-.45,1.69l2.29,22.8-4.53-37.65.58,2.15-1.88-16.9L110.54,242c-2.59-18.19,1.13,21.65,4.5,52.48l13,117.44C129.39,411.92,131,412,132.93,412.11ZM162.66,416a33.71,33.71,0,0,0-3.76-.38c-3.8,0-7.73,0-11.62,0l0,.35,13.95.16Zm-1.27,5.76c-2.11,0-4.22-.07-6.32-.07-2.82,0-5.12,0-7.13-.13l.06.51,13.41-.16S161.39,421.8,161.39,421.75Zm-14.81-6.1h-.47c-2.55,0-5.07.07-7.61.08-1,0-2,0-2.93-.06l0,.2,11,.13Zm-12.21.2,0-.21h-.42l-.58.21Zm13.51,13.43h-.49l.49,0-.68-7.09c-1.61,0-3.16,0-4.84,0l4.83-.06-.05-.56c-.66,0-1.29-.1-1.89-.16a90.12,90.12,0,0,0-9.09-.27l2,18.23,10.75.69Zm34.85-7c-9.37-.08-18.95,0-28.43-.05-2.06,0-4.2,0-6.29-.06l.32,2.92.45,4.11,1.09-.05c-.15-.33-1.39-.63,0-.83,1.09-.16,5.3-.28,8.31-.31,3.23,0,4.61,0,5.54-.3.68-.21,4.94-.35,7.62-.53,6.59-.42,4.42-1,4.84-1.51.14-.19-.21-.37-.39-.63l-5.48-.24,9.06-.35-.53.33c1.39,0,3.5,0,4.06,0,4.37-.38,9.14-.74,12.43-1.17C199.71,423.05,190.15,422.35,182.73,422.29Zm64.86,3a181.08,181.08,0,0,0-19.71.12l8.11,0,.19,0-6,.16c4.06.08,6.4.19,7.81.15C241.39,425.6,244.4,425.43,247.59,425.28Zm132-.28.31-2.82c-1.55,0-3.16,0-4.87,0-6.06,0-12.18,0-18.22,0a27.47,27.47,0,0,0-3.55.31c-3,.43-14.67.87-21.23.77-1.28,0-2.92-.06-3.55-.13-4.37-.49-4.3-.49-10.67-.06,3.38.47,6.79.91,9.63,1.37,1.08.17.84.39,1.2.59-4.12,0-8.26,0-12.37,0-1.42,0-2.79-.16-4.11-.16q-25.59.11-51.16.25c-.72,0-1.4,0-2.08.06.08,0,.12.11.21.11q20.41.08,40.83.15c4.17,0,8.36-.06,12.56-.07,8.29,0,10.66.17,9.59.94,4.61-.14,8.18-.26,11.85-.36,2.47-.07,5-.14,7.63-.15,12-.06,22.6-.38,33.11-.76C376.16,425,377.84,425,379.58,425Zm8.58-.05.22-2.73,0-.43c-1.39.12-3.15.23-5.16.3l-.32,2.89,4.31,0Zm.26-12.2a12.91,12.91,0,0,1-.48,2.14h.89C389,411.29,388.89,410.07,388.42,412.75Zm50.23-296.63a38.81,38.81,0,0,1-8.71,4.9l-.05.5A41.48,41.48,0,0,0,438.65,116.12Zm13.26-32.54c0-1.89,0-3.82-.05-5.75s-.26-4.17-.41-6.15a55.53,55.53,0,0,0-2.14-10.75c-1.72-6-3.67-8.8-2.81-6.06.53,2,.37,2.12-.33.7s-1.79-4.43-4-8.29A69.89,69.89,0,0,0,416.37,20,65.75,65.75,0,0,0,392,11.27c-8.82-1.22-16.84-.64-24.91-.76-3.51,0-7.24.19-9.48.31-8.14.43-39.24.87-56.79.77l-9.5-.13c-11.68-.49-11.49-.49-28.54-.06l25.77,1.37a7.86,7.86,0,0,1,3.2.59H258.71l-11-.16-68.45.12-34.21.06c-5.73.08-11.34-.16-17.19.28a61.08,61.08,0,0,0-17,3.73,34.09,34.09,0,0,0-5.19,2.24,2.2,2.2,0,0,0,.55-.14,63,63,0,0,1,26.88-5.83l27.3,0,54.63.07,33.6-.07c22.18,0,28.53.17,25.66.94L306,14.28l20.43-.15,45.74-.26c7.26,0,14.58-.53,21.74.88A64.9,64.9,0,0,1,414.16,22a63.9,63.9,0,0,1,13.09,9.85A69.51,69.51,0,0,1,438,46a62.41,62.41,0,0,1,7.9,25.63A129.34,129.34,0,0,1,446.13,85a32.76,32.76,0,0,1-3.44,13.15,32.19,32.19,0,0,1-12.39,13.28,30.85,30.85,0,0,1-11.07,4c-5.7.64-7.09.1-4.39-.28a24.35,24.35,0,0,0,8.63-3.31,28,28,0,0,0,12.24-8.4c2.08-2.55,2.5-3.79,1.38-2.63A29.23,29.23,0,0,0,442,90.52c1-3.7,1-7.44.92-11.54A64,64,0,0,0,439,56.14a60.62,60.62,0,0,0-30.12-33.29l1.82.77A57.93,57.93,0,0,0,398,18.44c-7.61-2.14-15.42-2.22-23.56-2.13H289c-16.63-.09-21.36-.08-19.53.27,3.4.64-15.17.71-28.08.87l-107.34.9a59.79,59.79,0,0,0-38.64,13.7A58,58,0,0,0,75.6,66.7a56.39,56.39,0,0,0-.82,8.35c-.18,2.85-.13,6.65,0,9.36a27.23,27.23,0,0,0,18.74,24.66,30.47,30.47,0,0,0,8.17,1.29l9.63,0,19.66-.07c3.45,0,11.75.14,13.72.26,3.75.23,4.55.5,6.85.78l18.29.12-5.81.25,40-.16,38.08.26,2.32-.38,29.91.06-6.63.13c.4.33,3.72.63,0,.83-2.91.16-14.19.28-22.24.31-8.64,0-12.32,0-14.81.3-1.82.21-13.21.35-20.39.53-17.63.42-11.83,1-12.94,1.51-.39.19.57.37,1,.63L213,116l-24.25.35,1.41-.33H179.3L146,117.17c-11.75.56,13.84,1.26,33.67,1.33l76.07.05,31.92.11-50.92.23,0,.15,16.91.07c11.1,0,19.35,0,26.26.33,6.36.27,16.81.31,31.1.26,17.25-.06,41-.34,53.31.26,4.62.23.75.58.75.86H413.5L390.25,123l9.67.14c-28.8.21-14.51,1.13-38.07,1.46l22.86.33c-7.52.29-16.41.5-12.06,1,3.41.37-10.82.84-15.53,1.27-1.9.18,2,.39.92.58a39.66,39.66,0,0,1-8,.65c-12.18.1-17.9.83-37.11.31l-9,0c-31.36.27-61.23.16-92.38-.11L148,128.42l-33.35.11,1.46,12.25,2.45,27.72,3.13,28.44c.15-.06.72,3.24.38-.83-1.1-13.58-.5-9.93,2.65,18.31,4.09,36.72,8.76,75.82,12,109.59.65,6.76,1.33,14.6,1.05,13.27-1.63-8-3.47-17.8-5.39-28.43-.83-4.58-2.17-16-4.48-37.21l-15.71-143.1h-7.23l9.79,89.18c.62,5.36,1.89,18.28,2.11,21.35.42,5.86.29,7.13.41,10.74l3,28.44-1.25-9,7.07,62.13,6.32,59.21.78,3.56,2,18h1.14c3.36-.08,6.63-.06,9.92-.08l-2.87-30,.66,4.29L146.88,412c8,0,15.88,0,24,.2,7.39.17,15.85.16,23.76.13,9.36,0,18.62-.22,28-.25,10.81,0,21.68,0,32.52,0,2.09,0,4.52,0,6.21-.07,10.5-.44,24.08-.27,32.44.3,3.5.24,9.95.25,15.06.36l-.51-.19a32.68,32.68,0,0,1,5.32-.7c5.36-.16,11.05-.15,16.61.19,3.95.24,10.38.27,16.44.42l-1.66.82c17.11.14,10.2,1,9.49,1.75,6.55-.08,12.53-.22,18.39-.2l7.81,0,.54-4.87,8.1-73.83-.26,3.17,2.64-22.07,16.73-150.46,2.2-19.86c1.32-11.49,2.21-19.3,2.73-24.21.73.07,1.51.08,2.27.11-.46,2.83-.7,3.14-.8,1.45l-5.11,49.3-3.38,31.76L391.84,343.05l-5.66,52.13L384,414.85l3.78,0c-.41-1.81,2.45-32.07,6.72-70.19l8.4-75.74c.6-5.46,1.06-11.27,1.33-14.77,1-12.69,5.91-61.09,9-88.35l1.77-14.76c1.85-13.37,2.32-16.73,3.45-28.26a36,36,0,0,0,4.93-.58c1.3-.42,2.91-1,4.89-1.76,3.63-1.69-.62-.09.1-.62a84,84,0,0,0,8.56-5.73,40.07,40.07,0,0,0,8.88-10A39.23,39.23,0,0,0,451.91,83.58Zm-208.42,41.6,34.22,0,20.35-.08,12.23.1,1.56-.21-74.69-.32-3.72.16C236.75,124.93,239.61,125.16,243.48,125.18Zm-114-25.12c-18.17,0-20.53.21-11.82.61,2.61.12.47.31.5.47l-10.16,0h-4.66l-1.87,0-.89-.08a16.09,16.09,0,0,1-9.08-3.83,17.21,17.21,0,0,1-7.45-12.76c-.13-.83-.13-3.7-.16-5.78-.08-2.46.12-3.69.13-5.59a52.64,52.64,0,0,1,1.72-10.23l1.72-5.26c1.83-4.23-.54-1.69-3.09,5.47A50.1,50.1,0,0,0,82,76.9c0,1.66,0,3.37-.07,5.1v1.29l0,.84a10.37,10.37,0,0,0,.12,1.7,18,18,0,0,0,2,6.6,19.82,19.82,0,0,0,11.7,9.72,25.18,25.18,0,0,0,3.82.77l2,.11h3.08l12.33,0,49.11.15c13.66,0,21,0,24-.35,6.9-.73,13.27-1.47,18.45-2.22.86-.12-4.17-.32-8.51-.42C178.32,99.72,153.15,100,129.52,100.05ZM286.65,22.59l-12.06-1L264,20.43l-41.75,0c-19.36-.15-32.21.12-47.94.26L138.17,21a76.69,76.69,0,0,0-17.38,1.45,55.69,55.69,0,0,0-16.13,6.48c-.75.56-2,1.35-3.15,2.27L98.42,34c-.75.7.33.12,2.13-1.09a59.26,59.26,0,0,1,10.83-5.69l5.16-1.66a21.68,21.68,0,0,1,2.88-.49,108.51,108.51,0,0,1,13.09-1.2l23.22.07c12,.1,18.92-.05,23.67-.38,5-.34,12.68-.67,21.62-1,3.65-.12,16.8-.19,20.28-.11C244.48,23,267.78,22.57,286.65,22.59ZM265.09,99.83H240.16l-2.77.18,78.32,1.89,4.81-.1-4.8.46,42.78.24,14.95-.18c22.48-.61,12.54-1.66-15.56-2.12C328,99.7,296,99.94,265.09,99.83ZM205.73,439.65c2.34,0,5.51-.06,6.84,0,2.88.18,4.81.44,6.65.62l20.18-.67c1,0,2.2-.1,2.63-.17,4.36-.73-6.3-1.67-17.42-1.67-12.26,0-24.62-.08-36.78-.2-5.1,0-7.85,0-9,.35-2.58.73-5,1.47-6.9,2.22-.32.12,1.56.32,3.18.42,8.11.5,17.52.18,26.35.16,6.79,0,7.67-.21,4.42-.61C204.94,440,205.74,439.81,205.73,439.65Zm116.48-6.38c-1.42-.37-2.62-.74-4-1.12-4.69,0-10.62.15-15.6,0-7.24-.15-12,.12-17.92.26-8.79.21-17.95.34-27.87.52-.77.14-2.44.39-3.37.65-.43.12.07.29,1,.4,2.87.34,8.18.64,8.84,1,1.37.72,9.14.5,14.44.62a45.1,45.1,0,0,0,8.85-.38c1.85-.34,4.74-.67,8.08-1,1.36-.12,6.28-.19,7.58-.11,8.66.52,17.37.11,24.43.13C325.08,433.94,323.53,433.6,322.21,433.27ZM318,260.64a35.19,35.19,0,0,0-1-5.29c.53,6.37-.12,9.56-.87,3.79-.2-1.31-.35.21-.55-.06a12.58,12.58,0,0,1-1.12-3.33,78.27,78.27,0,0,0-3.31-11.31c-2.1-5.93-7-11.36-6.33-9.24.79,3.11-3.56-4.71-12.26-12.18a53,53,0,0,0-16.39-9.52,15.4,15.4,0,0,0-3.6-.88c-1.58-.25-5.31-1-9.53-1.3a74.86,74.86,0,0,0-12.22.38c-1.3.18-3,.39-3.63.42-4.45.61-4.52.42-10.49,3.17l5.05-1.13c1.66-.24,3.25-.39,4.68-.53,1.08-.1.89.2,1.28.32a52.74,52.74,0,0,0-11.62,3.8c-1.25.63-2.61,1-3.71,1.7-14.79,8.34-24.92,24.38-25.74,41.29l0,2.05c0-.08.11-.11.12-.2A50.73,50.73,0,0,1,223,227a52.07,52.07,0,0,1,9.91-7.32,32.44,32.44,0,0,1,7.51-3.18c1.43-.37,1.79-.25,1.43.29A50.13,50.13,0,0,1,253,214.13a44.42,44.42,0,0,1,7.43-.24,53,53,0,0,1,30,11.09,47.39,47.39,0,0,1,8.53,9,51.83,51.83,0,0,1,8.43,17.53,36.28,36.28,0,0,1,1.43,10.6c0,2-.26,2.53-.67,1.56a23.35,23.35,0,0,0-1.83-3.23c-.45-4.69-1.49-7.61-1.73-6.34a48.39,48.39,0,0,0-17.41-27.55l.63.35c-1.29-1-2.48-2.17-3.89-3.06a48.25,48.25,0,0,0-32.22-7.52c-1.47.25-3,.43-4.4.73-5.68,1.24-7.12,2.19-6.43,2.19,1.31.17-4.71,2.36-8.26,5a47.74,47.74,0,0,0-19.95,29.13,45.62,45.62,0,0,0,2.84,28.67c.88,1.55,1.7,3.74,2.88,5.46a43.79,43.79,0,0,0,18.21,17.32c1,.45,3.43,1.86,4,2.11a9.6,9.6,0,0,1,1.89,1.52,51.22,51.22,0,0,0,6,1.73,16.74,16.74,0,0,1-2-.21,53.85,53.85,0,0,0,26.3-1.13l.62-.63a29.24,29.24,0,0,0,4.18-1.71,34.85,34.85,0,0,0,5-2.68l-1.86,1.28c.28.22,1.41-.13.42.72a29.88,29.88,0,0,1-6.89,3.51c-2.8,1.14-4.1,1.29-4.86,1.82-.54.47-4.47,1.33-7,1.8-6.23.74-4.2,1.2-4.58,1.75-.14.19.21.36.39.62.4,0,2.2.07,5.44-.12a50.5,50.5,0,0,1-9,.6l.54-.31c-1.39-.06-3.48-.21-4-.32a59.2,59.2,0,0,1-12.4-1.91c-4.45-1.16,4.42,3.58,12.26,4.41a53.39,53.39,0,0,0,29-4.44,57.62,57.62,0,0,0,10.71-6.37,54.3,54.3,0,0,1-17.55,9.34l.06.14a62.08,62.08,0,0,0,6.29-2.25c4-1.8,6.78-3.5,9.24-4.78a38.46,38.46,0,0,0,9.46-8c4.79-5,9.18-13.48,11.27-17.95.85-1.67.65-.09.91,0a55.2,55.2,0,0,0,3.46-19.29,61.78,61.78,0,0,1,1.27,9.77l.73-4c-.66,6.07-.88,7.62-.92,8.92s.17,2.41-1.51,7.26a64.41,64.41,0,0,0,3.2-9.44c-.5,3.25-1.34,7.11-.38,5.39.87-1.34-.74,4.84-1.21,7-.21.85.74-.65.71-.15a8.46,8.46,0,0,1-1,3.59c-2.49,5-3.16,7.88-9.33,14.36l-2.88,3a61.27,61.27,0,0,1-38.05,17.94,67,67,0,0,1-28.91-3.7,63.07,63.07,0,0,1-42-56.92,71.69,71.69,0,0,1,0-7.69,56.76,56.76,0,0,1,15.18-36.54,75,75,0,0,1,14.1-12l-.64.17a33.88,33.88,0,0,1,5.31-4,52.32,52.32,0,0,1,19.63-6.35,67.48,67.48,0,0,1,20.26.34l-2.12.52c10.35,1.58,13.05,3.55,13.32,3.85s-2,0-2.53.26a58.15,58.15,0,0,1,19.3,10C304,222.41,311,232.15,314,241.12l1.65,4.64c.58,1.93,1.1,4,1.49,5.68A53,53,0,0,1,318,260.64Zm-44.54,61.61a17.94,17.94,0,0,0,4.31-1,58,58,0,0,0,13.4-6.71,65,65,0,0,0,7-5.57,46.58,46.58,0,0,0,3.88-3.69l.31-.65a60.4,60.4,0,0,1-27.32,17Zm-65.91-48.33a41.09,41.09,0,0,0,7.35,17.86,50.54,50.54,0,0,1-3.84-7l0-.19a54.72,54.72,0,0,0,2.87,5.2,57.77,57.77,0,0,1-3.25-6.92A60.08,60.08,0,0,1,207.52,273.92Zm41.56,27.95c3.73.83,5.82.83,6.66.51a20.54,20.54,0,0,0,4.94-2.28c.21-.13-1.12-.28-2.24-.31A42.59,42.59,0,0,1,241,295.57c-4-2.33-4.62-2.62-2.94-1,.52.45-.06.33-.14.47a28.93,28.93,0,0,1-3.9-2.87,23.73,23.73,0,0,1-2.92-3.71,36.33,36.33,0,0,1-7.89-11.67,15.51,15.51,0,0,0-.81-1.69c-1.42-3-.89,5.23,4.3,12A39.06,39.06,0,0,0,249.09,301.86ZM226,236.52a26.8,26.8,0,0,1,4.31-4.42c5.66-4.21,12-7.45,17.61-8.74-1.36,0-2.73-.12-3.85,0l-3.52.1a54.49,54.49,0,0,0-11.31,6.94,36.23,36.23,0,0,0-9.56,11.79,43.8,43.8,0,0,0-5.41,22.56c.18.65.5,2,.79,2.77.14.35.28-.09.36-.85.06-2.37.74-6.65,1.13-7.12.85-1,1.52-7.1,3.43-10.89,1.51-3.2,2.4-5,2.9-6.35A22.5,22.5,0,0,1,226,236.52Zm66.51,42.35a31.51,31.51,0,0,0,1.19-3.91c.8-6.14-.48-3.39-3.37,3.16-3.46,6.84-9,13.35-16,17.08a48.17,48.17,0,0,1-5.84,2.48,4.51,4.51,0,0,1-.62.4,36.76,36.76,0,0,0,18-9.66,6.79,6.79,0,0,0,.76-1.06,7.55,7.55,0,0,1-.48,1.29A39.85,39.85,0,0,0,292.53,278.87Z"/></svg>