<svg id="Layer_1" data-name="Layer 1" xmlns="http://www.w3.org/2000/svg" viewBox="0 0 512 512"><defs><style>.cls-1{fill:#dde5e8;}.cls-2{fill:#cad8dd;}.cls-3{fill:#71c6c4;}.cls-4{fill:#17292d;opacity:0.06;}</style></defs><title>coffee-1-flat</title><path class="cls-1" d="M416,102.4H96a31.87,31.87,0,0,1-13.86-3.15L116.61,409.6l2.88,25.6L121.66,455a64,64,0,0,0,63.62,57H326.72a64,64,0,0,0,63.62-57l2.18-19.84,2.88-25.6L429.86,99.25A31.87,31.87,0,0,1,416,102.4Z"/><polygon class="cls-2" points="395.39 409.6 392.51 435.2 119.49 435.2 116.61 409.6 395.39 409.6"/><path class="cls-2" d="M128,0H384a64,64,0,0,1,64,64v6.4a32,32,0,0,1-32,32H96a32,32,0,0,1-32-32V64A64,64,0,0,1,128,0Z"/><circle class="cls-3" cx="256" cy="256" r="76.8"/><path class="cls-4" d="M384,0H320a64,64,0,0,1,64,64v6.4a32,32,0,0,1-32,32h13.51L326.33,455.07A64,64,0,0,1,262.72,512h64a64,64,0,0,0,63.61-56.93L429.86,99.25h0A32,32,0,0,0,448,70.4V64A64,64,0,0,0,384,0Z"/></svg>