<svg width="155" height="49" viewBox="0 0 155 49" fill="none" xmlns="http://www.w3.org/2000/svg">
<path d="M133.918 19.0757C133.707 15.3604 133.426 13.3641 130.61 10.9242C127.02 7.76338 125.682 4.71348 128.639 0C129.413 3.16081 129.695 5.98889 132.511 7.70793C135.326 9.42696 137.649 14.085 133.918 19.0757ZM128.639 19.0757C128.498 17.0794 128.357 16.0813 126.809 14.695C124.908 13.0314 124.134 11.4233 125.753 8.87244C126.175 10.5915 126.246 12.0887 127.794 12.9759C129.343 13.8632 130.68 16.414 128.639 19.0757ZM141.38 36.5988H154.192C154.966 36.5988 155.248 37.0424 154.755 37.5415C154.755 37.5415 149.757 42.5877 142.858 42.5877H118.15L106.254 37.5415C105.761 37.0424 105.972 36.5988 106.747 36.5988H119.417C117.658 35.8779 115.053 32.7171 115.053 28.78V20.4621H145.885V21.1275C146.871 20.4621 148.067 20.1293 149.335 20.1293C151.094 20.1293 154.403 21.5711 154.403 24.0665C154.403 27.6709 151.376 29.0018 149.616 29.9445C149.616 29.9445 146.308 31.9962 143.985 34.3807C143.21 35.4343 142.295 36.2661 141.38 36.5988ZM149.335 21.6266C148.208 21.6266 146.8 22.0147 145.885 23.7892V28.3918C145.885 29.0018 145.815 29.7227 145.674 30.3326C147.223 29.1127 149.053 28.2809 149.053 28.2809C150.179 27.6709 152.432 26.5064 152.432 24.2328C152.502 22.6247 150.602 21.6266 149.335 21.6266ZM120.403 22.292H118.432V24.5656H120.403V22.292ZM120.403 25.8964H118.432V29.6118C118.432 29.6118 118.995 34.6025 123.007 36.0997C120.544 33.8262 120.403 31.2199 120.403 29.6118V25.8964Z" fill="#31211A" fill-opacity="0.9"/>
<path d="M9.36485 10.7708H9.81488C10.4578 10.7708 11.0864 10.6548 11.7007 10.4228C12.315 10.1907 12.8722 9.85718 13.3722 9.42212C14.2723 8.62451 14.7223 7.61663 14.7223 6.39846C14.7223 5.86189 14.6295 5.39783 14.4437 5.00628C14.2723 4.61473 14.0366 4.28118 13.7365 4.00564C13.4508 3.74461 13.1222 3.56333 12.7508 3.46182C12.3793 3.34581 11.9864 3.2878 11.5721 3.2878C10.9721 3.2878 10.3649 3.41106 9.75059 3.6576C9.15055 3.90413 8.62195 4.25943 8.16478 4.72349C7.79333 5.10054 7.47902 5.54285 7.22186 6.05042C6.96471 6.55799 6.83613 7.06555 6.83613 7.57312C6.83613 8.25471 7.00757 8.76953 7.35044 9.11758C7.49331 9.2626 7.67189 9.38587 7.88619 9.48738C8.10049 9.57439 8.3505 9.6179 8.63624 9.6179C8.9934 9.6179 9.36485 9.54539 9.75059 9.40037C10.1506 9.25535 10.5149 9.01607 10.8435 8.68252C11.0578 8.46499 11.2507 8.21121 11.4221 7.92117C11.6078 7.61663 11.7579 7.26858 11.8721 6.87703L12.1293 6.89878C11.915 7.69639 11.5507 8.35623 11.0364 8.8783C10.6649 9.26985 10.2363 9.56714 9.75059 9.77017C9.27913 9.95869 8.81482 10.053 8.35765 10.053C8.02906 10.053 7.69332 10.0167 7.35044 9.94419C7.00757 9.87168 6.7004 9.72666 6.42896 9.50913C6.15751 9.2916 5.93607 9.02332 5.76463 8.70427C5.60748 8.38523 5.5289 8.02268 5.5289 7.61663C5.5289 7.00755 5.71463 6.41297 6.08608 5.83289C6.45753 5.25281 6.97185 4.74524 7.62903 4.31018C8.35765 3.81712 9.08626 3.46907 9.81488 3.26604C10.5578 3.04852 11.3364 2.93975 12.1507 2.93975C12.6793 2.93975 13.2294 2.99051 13.8008 3.09202C14.3866 3.17903 14.8938 3.36031 15.3224 3.63584C15.6938 3.86788 16.0295 4.18692 16.3296 4.59297C16.6296 4.98453 16.7796 5.48484 16.7796 6.09392C16.7796 6.79002 16.6081 7.4136 16.2653 7.96467C15.9367 8.50125 15.4938 8.97981 14.9366 9.40037C14.4794 9.73391 13.9723 10.0167 13.4151 10.2487C12.8579 10.4808 12.265 10.6548 11.6364 10.7708V10.8143C11.965 10.8433 12.3222 10.9158 12.7079 11.0318C13.0936 11.1479 13.4222 11.3074 13.6937 11.5104C13.9794 11.7279 14.208 12.0035 14.3794 12.337C14.5509 12.6706 14.6366 13.0476 14.6366 13.4682C14.6366 14.2223 14.4294 14.9619 14.0151 15.687C13.6008 16.3976 12.9151 17.0574 11.9579 17.6665C11.6293 17.884 11.2435 18.0798 10.8007 18.2538C10.3721 18.4133 9.92203 18.5511 9.45057 18.6671C8.97911 18.7831 8.50051 18.8701 8.01477 18.9281C7.52903 18.9862 7.06471 19.0152 6.62183 19.0152C6.3361 19.0152 6.03608 19.0079 5.72177 18.9934C5.42176 18.9789 5.11459 18.9426 4.80029 18.8846C4.48598 18.8266 4.17882 18.7469 3.87881 18.6454C3.57879 18.5438 3.3002 18.4133 3.04304 18.2538C2.48586 17.8913 2.10727 17.4925 1.90726 17.0574C1.72153 16.6223 1.62867 16.2163 1.62867 15.8392C1.62867 15.5347 1.69296 15.2374 1.82154 14.9474C1.9644 14.6573 2.13584 14.4253 2.33586 14.2513C2.57873 14.0482 2.85732 13.9032 3.17162 13.8162C3.48592 13.7147 3.80737 13.6639 4.13596 13.6639C4.46455 13.6639 4.77886 13.7364 5.07888 13.8815C5.3789 14.0265 5.6432 14.2078 5.87178 14.4253L5.80749 14.5993C5.67891 14.5558 5.54319 14.5268 5.40033 14.5123C5.25746 14.4833 5.13602 14.4688 5.03602 14.4688C4.67885 14.4688 4.33598 14.6066 4.00738 14.8821C3.69308 15.1431 3.53593 15.5564 3.53593 16.122C3.53593 16.5426 3.62879 16.9124 3.81452 17.2314C4.01453 17.5505 4.27169 17.826 4.58599 18.058C4.88601 18.2756 5.22889 18.4423 5.61462 18.5583C6.01465 18.6744 6.40039 18.7324 6.77184 18.7324C7.50045 18.7324 8.22907 18.5874 8.95768 18.2973C9.6863 17.9928 10.3435 17.536 10.9292 16.9269C11.3293 16.5063 11.665 15.9843 11.9364 15.3607C12.2222 14.7371 12.365 14.099 12.365 13.4464C12.365 13.0404 12.315 12.6778 12.215 12.3588C12.115 12.0397 11.9436 11.7714 11.7007 11.5539C11.3293 11.2059 10.8221 11.0318 10.1792 11.0318C10.0506 11.0318 9.89345 11.0463 9.70773 11.0753C9.522 11.0898 9.35056 11.1188 9.19341 11.1624L9.36485 10.7708Z" fill="#31211A" fill-opacity="0.9"/>
<path d="M25.2236 11.1188L27.4523 10.9883C27.3237 11.2494 27.138 11.5684 26.8951 11.9455C26.6523 12.308 26.388 12.7068 26.1022 13.1419C25.8165 13.5624 25.5236 14.0047 25.2236 14.4688C24.9379 14.9184 24.6736 15.3607 24.4307 15.7957C24.1878 16.2163 23.9878 16.6151 23.8307 16.9921C23.6878 17.3547 23.6164 17.6665 23.6164 17.9275C23.6164 18.2901 23.795 18.4713 24.1521 18.4713C24.495 18.4713 24.9593 18.2683 25.5451 17.8623C26.1308 17.4562 26.7451 16.9196 27.388 16.2525C27.6595 15.977 27.9309 15.6797 28.2024 15.3607C28.4881 15.0416 28.7595 14.7298 29.0167 14.4253C29.2739 14.1062 29.5096 13.8162 29.7239 13.5552C29.9382 13.2796 30.1096 13.0549 30.2382 12.8808L30.3882 12.9678C30.0168 13.4754 29.5882 14.041 29.1024 14.6646C28.6167 15.2737 28.0309 15.9262 27.3452 16.6223C26.6594 17.3184 25.9808 17.8913 25.3093 18.3408C24.6522 18.7759 23.995 18.9934 23.3378 18.9934C22.8806 18.9934 22.5235 18.8774 22.2663 18.6454C22.0234 18.3988 21.902 18.1015 21.902 17.7535C21.902 17.6375 21.9091 17.5287 21.9234 17.4272C21.9377 17.3257 21.9591 17.2459 21.9877 17.1879H21.9448C21.502 17.6955 21.0019 18.1233 20.4448 18.4713C19.8876 18.8194 19.2875 18.9934 18.6446 18.9934C18.3018 18.9934 18.0089 18.9281 17.766 18.7976C17.5232 18.6671 17.3231 18.4931 17.166 18.2756C17.0231 18.0435 16.916 17.7897 16.8445 17.5142C16.7731 17.2242 16.7374 16.9269 16.7374 16.6223C16.7374 15.9117 16.9303 15.2011 17.316 14.4906C17.7017 13.78 18.1875 13.1419 18.7732 12.5763C19.359 11.9962 20.009 11.5322 20.7233 11.1841C21.452 10.8216 22.1449 10.6403 22.802 10.6403C23.3021 10.6403 23.695 10.749 23.9807 10.9666C24.2664 11.1841 24.5021 11.5249 24.6879 11.989L25.2236 11.1188ZM18.7947 16.6876C18.7947 17.1082 18.8589 17.478 18.9875 17.797C19.1304 18.1015 19.4233 18.2538 19.8662 18.2538C20.1662 18.2393 20.4805 18.116 20.8091 17.884C21.1377 17.6375 21.452 17.3329 21.752 16.9704C22.0663 16.6078 22.3592 16.209 22.6306 15.774C22.9163 15.3244 23.1592 14.8749 23.3592 14.4253C23.5735 13.9757 23.7378 13.5552 23.8521 13.1636C23.9807 12.7576 24.045 12.4168 24.045 12.1412C24.045 11.7497 23.9735 11.4451 23.8307 11.2276C23.6878 11.0101 23.4092 10.9013 22.9949 10.9013C22.6663 10.9013 22.3306 11.0028 21.9877 11.2059C21.6591 11.4089 21.3377 11.6772 21.0234 12.0107C20.7233 12.3443 20.4305 12.7213 20.1447 13.1419C19.8733 13.5479 19.6376 13.9685 19.4376 14.4035C19.2375 14.8386 19.0804 15.2592 18.9661 15.6652C18.8518 16.0568 18.7947 16.3976 18.7947 16.6876Z" fill="#31211A" fill-opacity="0.9"/>
<path d="M36.3147 14.5993C36.5862 14.2513 36.9076 13.8525 37.2791 13.4029C37.6505 12.9388 38.0506 12.5038 38.4792 12.0977C38.922 11.6917 39.3792 11.3509 39.8507 11.0753C40.3364 10.7853 40.815 10.6403 41.2865 10.6403C41.7436 10.6403 42.108 10.7853 42.3794 11.0753C42.6651 11.3654 42.808 11.6989 42.808 12.076C42.808 12.569 42.6508 13.0766 42.3365 13.5987C42.0222 14.1062 41.6722 14.6138 41.2865 15.1214C40.9007 15.629 40.5507 16.122 40.2364 16.6006C39.9221 17.0791 39.765 17.5142 39.765 17.9058C39.765 18.0653 39.8007 18.203 39.8721 18.3191C39.9435 18.4206 40.0578 18.4713 40.215 18.4713C40.8007 18.4713 41.7579 17.797 43.0866 16.4483C43.6295 15.8972 44.1581 15.3172 44.6724 14.7081C45.201 14.0845 45.6582 13.5189 46.0439 13.0114L46.2153 13.0984C46.0439 13.3159 45.8439 13.5624 45.6153 13.838C45.401 14.1135 45.1653 14.4108 44.9081 14.7298C44.651 15.0344 44.3724 15.3534 44.0724 15.687C43.7866 16.0205 43.4937 16.3395 43.1937 16.6441C42.7937 17.0501 42.4294 17.3982 42.1008 17.6882C41.7722 17.9638 41.4651 18.1885 41.1793 18.3626C40.9079 18.5366 40.6436 18.6599 40.3864 18.7324C40.1435 18.8194 39.8935 18.8629 39.6364 18.8629C39.1363 18.8629 38.7435 18.7251 38.4577 18.4496C38.1863 18.1595 38.0506 17.797 38.0506 17.3619C38.0506 16.8979 38.2077 16.3976 38.522 15.861C38.8363 15.3244 39.1863 14.8023 39.5721 14.2948C39.9578 13.7872 40.3078 13.3159 40.6221 12.8808C40.9365 12.4313 41.0936 12.0687 41.0936 11.7932C41.0936 11.5902 41.0365 11.4379 40.9222 11.3364C40.8079 11.2204 40.6721 11.1624 40.515 11.1624C40.215 11.1624 39.865 11.3074 39.4649 11.5974C39.0792 11.8729 38.672 12.2355 38.2434 12.6851C37.8148 13.1346 37.3862 13.6349 36.9576 14.186C36.5433 14.7371 36.1433 15.2882 35.7576 15.8392C35.3861 16.3903 35.0504 16.9051 34.7504 17.3837C34.4646 17.8623 34.236 18.2538 34.0646 18.5583L31.793 18.6454C32.2788 17.8623 32.7502 17.1227 33.2074 16.4266C33.6789 15.716 34.0932 15.0706 34.4503 14.4906C34.8218 13.896 35.1147 13.3739 35.329 12.9243C35.5576 12.4748 35.6718 12.1195 35.6718 11.8584C35.6718 11.6844 35.6218 11.5249 35.5218 11.3799C35.4218 11.2349 35.2647 11.1624 35.0504 11.1624C34.7504 11.1624 34.4003 11.3074 34.0003 11.5974C33.6146 11.8729 33.2074 12.2355 32.7788 12.6851C32.3502 13.1346 31.9145 13.6349 31.4716 14.186C31.043 14.7371 30.6358 15.2882 30.2501 15.8392C29.8644 16.3903 29.5215 16.9051 29.2215 17.3837C28.9214 17.8623 28.6857 18.2538 28.5143 18.5583L26.3499 18.6454C27.1356 17.3692 27.9142 16.1003 28.6857 14.8386C29.4572 13.5624 30.2144 12.2645 30.9573 10.9448L33.4646 10.8143L30.6144 14.7733L30.6573 14.8168C30.9573 14.4688 31.293 14.0555 31.6645 13.5769C32.0502 13.0984 32.4645 12.6416 32.9074 12.2065C33.3503 11.7714 33.8217 11.4016 34.3218 11.0971C34.8361 10.7926 35.379 10.6403 35.9504 10.6403C36.3505 10.6403 36.6862 10.749 36.9576 10.9666C37.2434 11.1841 37.3862 11.5104 37.3862 11.9455C37.3862 12.1485 37.3505 12.366 37.2791 12.598C37.2077 12.8301 37.1148 13.0621 37.0005 13.2941C36.9005 13.5117 36.7791 13.7364 36.6362 13.9685C36.5076 14.186 36.3862 14.3818 36.2719 14.5558L36.3147 14.5993Z" fill="#31211A" fill-opacity="0.9"/>
<path d="M54.2875 10.9013C53.7304 11.8439 53.2089 12.6851 52.7232 13.4247C52.2517 14.1643 51.8445 14.8241 51.5017 15.4042C51.1588 15.9697 50.8873 16.4628 50.6873 16.8834C50.5016 17.3039 50.4087 17.6737 50.4087 17.9928C50.4087 18.3118 50.5445 18.4713 50.8159 18.4713C50.9873 18.4713 51.1945 18.4133 51.4374 18.2973C51.6802 18.1668 51.9374 18.0073 52.2088 17.8187C52.4803 17.6157 52.7589 17.3837 53.0446 17.1227C53.3303 16.8616 53.6018 16.6006 53.8589 16.3395C54.1732 16.006 54.4804 15.6725 54.7804 15.3389C55.0947 14.9909 55.3805 14.6573 55.6376 14.3383C55.9091 14.0192 56.1519 13.7292 56.3662 13.4682C56.5805 13.1926 56.7591 12.9606 56.902 12.7721L57.0734 12.9026C56.7305 13.3666 56.2948 13.925 55.7662 14.5776C55.2376 15.2156 54.6733 15.8465 54.0732 16.4701C53.3446 17.2242 52.6732 17.8115 52.0588 18.2321C51.4445 18.6526 50.8373 18.8629 50.2373 18.8629C49.8087 18.8629 49.4658 18.7324 49.2087 18.4713C48.9515 18.2103 48.8229 17.884 48.8229 17.4925C48.8229 17.2169 48.8444 16.9704 48.8872 16.7529C48.9444 16.5353 49.0086 16.3686 49.0801 16.2525L49.0372 16.209C48.7801 16.4846 48.5015 16.7819 48.2015 17.1009C47.9014 17.4054 47.58 17.6882 47.2371 17.9493C46.8942 18.2103 46.5228 18.4278 46.1228 18.6019C45.737 18.7759 45.3156 18.8629 44.8584 18.8629C44.4155 18.8629 44.0798 18.7251 43.8512 18.4496C43.6226 18.1595 43.5083 17.826 43.5083 17.4489C43.5083 16.8979 43.8012 16.1003 44.3869 15.0561C44.9727 14.012 45.7656 12.6561 46.7657 10.9883L49.0372 10.9013C47.9086 12.6561 46.9871 14.099 46.2728 15.2302C45.5727 16.3468 45.2227 17.1807 45.2227 17.7317C45.2227 17.9058 45.2656 18.0508 45.3513 18.1668C45.4513 18.2828 45.5799 18.3408 45.737 18.3408C46.0085 18.3408 46.3299 18.2248 46.7014 17.9928C47.0871 17.7607 47.4871 17.4489 47.9014 17.0574C48.3157 16.6658 48.7229 16.2163 49.1229 15.7087C49.5373 15.2011 49.9087 14.6718 50.2373 14.1208L52.0803 11.0753L54.2875 10.9013Z" fill="#31211A" fill-opacity="0.9"/>
<path d="M65.0763 16.209C64.8763 16.4266 64.6191 16.7021 64.3048 17.0356C63.9905 17.3692 63.6405 17.681 63.2548 17.971C62.9262 18.2176 62.5619 18.4278 62.1618 18.6019C61.7761 18.7759 61.3832 18.8629 60.9832 18.8629C60.4832 18.8629 60.1189 18.7251 59.8903 18.4496C59.676 18.1595 59.5688 17.8042 59.5688 17.3837C59.5688 17.1227 59.5903 16.9124 59.6331 16.7529C59.6903 16.5933 59.7546 16.4266 59.826 16.2525L59.7831 16.209C59.5117 16.5136 59.2474 16.7964 58.9902 17.0574C58.7331 17.3039 58.4688 17.5432 58.1973 17.7752C57.7544 18.1523 57.3187 18.4278 56.8901 18.6019C56.4615 18.7759 56.0615 18.8629 55.69 18.8629C55.2186 18.8629 54.8614 18.7396 54.6185 18.4931C54.3757 18.2321 54.2542 17.8768 54.2542 17.4272C54.2542 17.0936 54.3542 16.7021 54.5542 16.2525C54.7542 15.7885 55.0185 15.2737 55.3471 14.7081L57.5116 10.9883L59.7617 10.9013L57.8116 13.9685C57.583 14.331 57.3687 14.6718 57.1687 14.9909C56.9687 15.2954 56.7972 15.5782 56.6544 15.8392C56.4115 16.2888 56.2329 16.6658 56.1186 16.9704C56.0186 17.2604 55.9686 17.507 55.9686 17.71C55.9686 17.8985 56.0115 18.0508 56.0972 18.1668C56.1829 18.2828 56.3258 18.3408 56.5258 18.3408C56.7972 18.3408 57.1758 18.1885 57.6616 17.884C58.1616 17.565 58.7831 16.9776 59.526 16.122C59.9831 15.5854 60.3689 15.0706 60.6832 14.5776C61.0118 14.07 61.3546 13.5189 61.7118 12.9243L62.8262 11.0753L65.0763 10.9013L63.2762 13.7292C63.119 13.9612 62.9262 14.2658 62.6976 14.6428C62.469 15.0054 62.269 15.3389 62.0975 15.6435C61.869 16.0495 61.6689 16.4411 61.4975 16.8181C61.3404 17.1807 61.2618 17.4997 61.2618 17.7752C61.2618 17.9348 61.3046 18.0725 61.3904 18.1885C61.4904 18.2901 61.6189 18.3408 61.7761 18.3408C61.9904 18.3408 62.269 18.2538 62.6119 18.0798C62.9547 17.8913 63.3333 17.6085 63.7477 17.2314C64.1334 16.8834 64.5406 16.4628 64.9691 15.9697C65.3977 15.4622 65.8406 14.8313 66.2978 14.0772C66.5978 13.5842 66.8907 13.1056 67.1764 12.6416C67.4622 12.1775 67.7765 11.6554 68.1193 11.0753L70.3266 10.9013C69.9837 11.4524 69.6694 11.9672 69.3837 12.4458C69.098 12.9098 68.8194 13.3521 68.5479 13.7727C68.3051 14.1498 68.0551 14.5558 67.7979 14.9909C67.5407 15.4114 67.3121 15.7957 67.1121 16.1438C66.8836 16.5498 66.7121 16.9124 66.5978 17.2314C66.4978 17.536 66.4478 17.7825 66.4478 17.971C66.4478 18.116 66.4764 18.2393 66.5335 18.3408C66.5907 18.4278 66.6978 18.4713 66.855 18.4713C67.155 18.4713 67.6122 18.2538 68.2265 17.8187C68.8551 17.3692 69.5551 16.7166 70.3266 15.861C70.7123 15.4259 71.1267 14.9546 71.5695 14.447C72.0124 13.9395 72.4696 13.3812 72.9411 12.7721L73.1125 12.9026C72.1267 14.2078 71.2267 15.2954 70.4123 16.1655C69.5694 17.0646 68.8265 17.739 68.1836 18.1885C67.5407 18.6381 66.905 18.8629 66.2764 18.8629C65.8335 18.8629 65.4835 18.7324 65.2263 18.4713C64.9834 18.2103 64.862 17.8695 64.862 17.4489C64.862 17.1879 64.8763 16.9849 64.9049 16.8399C64.9477 16.6948 65.0192 16.4991 65.1192 16.2525L65.0763 16.209Z" fill="#31211A" fill-opacity="0.9"/>
<path d="M84.0104 12.9026C83.5104 13.5552 83.0389 14.1498 82.5961 14.6863C82.1532 15.2084 81.7389 15.6797 81.3531 16.1003C80.4102 17.1299 79.6102 17.8478 78.953 18.2538C78.2958 18.6599 77.7029 18.8629 77.1743 18.8629C76.8028 18.8629 76.4671 18.7686 76.1671 18.5801C75.8671 18.3771 75.7171 18.0218 75.7171 17.5142C75.7171 17.2677 75.7528 17.0066 75.8242 16.7311C75.9099 16.4556 76.0171 16.1873 76.1457 15.9262C76.2742 15.6507 76.41 15.3824 76.5528 15.1214C76.6528 14.9619 76.7457 14.8096 76.8314 14.6646H73.5741L73.5527 14.7081C73.2955 15.1431 73.0383 15.5927 72.7812 16.0568C72.5383 16.5063 72.3169 16.9196 72.1169 17.2967C71.8883 17.7462 71.674 18.174 71.474 18.5801L69.181 18.7106L73.7027 10.9883L75.9742 10.9013C75.6171 11.4524 75.2813 11.9672 74.967 12.4458C74.6956 12.8663 74.4241 13.2869 74.1527 13.7074C73.9955 13.983 73.8527 14.215 73.7241 14.4035H77.0029C77.0457 14.3165 77.1171 14.1933 77.2172 14.0337C77.3172 13.8597 77.4243 13.6857 77.5386 13.5117C77.6672 13.3086 77.7958 13.0984 77.9243 12.8808C78.1958 12.4603 78.4101 12.1122 78.5672 11.8367C78.7244 11.5612 78.8744 11.3074 79.0173 11.0753L81.2245 10.9013L79.7673 13.2506C79.4673 13.7437 79.1887 14.186 78.9315 14.5776C78.6887 14.9691 78.4744 15.3244 78.2887 15.6435C78.0743 15.9915 77.9029 16.2888 77.7743 16.5353C77.66 16.7819 77.5672 16.9994 77.4957 17.1879C77.4386 17.3619 77.3957 17.5142 77.3672 17.6447C77.3529 17.7607 77.3457 17.8623 77.3457 17.9493C77.3457 18.1088 77.3672 18.2393 77.41 18.3408C77.4672 18.4278 77.5886 18.4713 77.7743 18.4713C78.0458 18.4713 78.4672 18.2756 79.0387 17.884C79.6244 17.478 80.3459 16.8181 81.2031 15.9045C81.5889 15.4839 82.0103 15.0054 82.4675 14.4688C82.9389 13.9177 83.3961 13.3521 83.839 12.7721L84.0104 12.9026Z" fill="#31211A" fill-opacity="0.9"/>
<path d="M90.3378 11.1188L92.5665 10.9883C92.4379 11.2494 92.2522 11.5684 92.0093 11.9455C91.7664 12.308 91.5021 12.7068 91.2164 13.1419C90.9306 13.5624 90.6378 14.0047 90.3378 14.4688C90.052 14.9184 89.7877 15.3607 89.5449 15.7957C89.302 16.2163 89.102 16.6151 88.9448 16.9921C88.8019 17.3547 88.7305 17.6665 88.7305 17.9275C88.7305 18.2901 88.9091 18.4713 89.2663 18.4713C89.6091 18.4713 90.0734 18.2683 90.6592 17.8623C91.2449 17.4562 91.8593 16.9196 92.5022 16.2525C92.7736 15.977 93.0451 15.6797 93.3165 15.3607C93.6022 15.0416 93.8737 14.7298 94.1308 14.4253C94.388 14.1062 94.6237 13.8162 94.838 13.5552C95.0523 13.2796 95.2238 13.0549 95.3523 12.8808L95.5023 12.9678C95.1309 13.4754 94.7023 14.041 94.2166 14.6646C93.7308 15.2737 93.1451 15.9262 92.4593 16.6223C91.7736 17.3184 91.0949 17.8913 90.4235 18.3408C89.7663 18.7759 89.1091 18.9934 88.4519 18.9934C87.9948 18.9934 87.6376 18.8774 87.3804 18.6454C87.1376 18.3988 87.0161 18.1015 87.0161 17.7535C87.0161 17.6375 87.0233 17.5287 87.0376 17.4272C87.0518 17.3257 87.0733 17.2459 87.1018 17.1879H87.059C86.6161 17.6955 86.1161 18.1233 85.5589 18.4713C85.0017 18.8194 84.4017 18.9934 83.7588 18.9934C83.4159 18.9934 83.123 18.9281 82.8802 18.7976C82.6373 18.6671 82.4373 18.4931 82.2801 18.2756C82.1373 18.0435 82.0301 17.7897 81.9587 17.5142C81.8872 17.2242 81.8515 16.9269 81.8515 16.6223C81.8515 15.9117 82.0444 15.2011 82.4301 14.4906C82.8159 13.78 83.3016 13.1419 83.8874 12.5763C84.4731 11.9962 85.1232 11.5322 85.8375 11.1841C86.5661 10.8216 87.259 10.6403 87.9162 10.6403C88.4162 10.6403 88.8091 10.749 89.0948 10.9666C89.3806 11.1841 89.6163 11.5249 89.802 11.989L90.3378 11.1188ZM83.9088 16.6876C83.9088 17.1082 83.9731 17.478 84.1017 17.797C84.2445 18.1015 84.5374 18.2538 84.9803 18.2538C85.2803 18.2393 85.5946 18.116 85.9232 17.884C86.2518 17.6375 86.5661 17.3329 86.8661 16.9704C87.1804 16.6078 87.4733 16.209 87.7447 15.774C88.0305 15.3244 88.2733 14.8749 88.4734 14.4253C88.6877 13.9757 88.852 13.5552 88.9662 13.1636C89.0948 12.7576 89.1591 12.4168 89.1591 12.1412C89.1591 11.7497 89.0877 11.4451 88.9448 11.2276C88.8019 11.0101 88.5234 10.9013 88.1091 10.9013C87.7805 10.9013 87.4447 11.0028 87.1018 11.2059C86.7733 11.4089 86.4518 11.6772 86.1375 12.0107C85.8375 12.3443 85.5446 12.7213 85.2589 13.1419C84.9874 13.5479 84.7517 13.9685 84.5517 14.4035C84.3517 14.8386 84.1945 15.2592 84.0802 15.6652C83.9659 16.0568 83.9088 16.3976 83.9088 16.6876Z" fill="#31211A" fill-opacity="0.9"/>
<path d="M10.7364 30.2925C10.8078 30.452 10.8864 30.6478 10.9721 30.8798C11.0578 31.0974 11.1007 31.3584 11.1007 31.6629C11.1007 32.185 10.9864 32.6708 10.7578 33.1204C10.5292 33.5554 10.222 33.9325 9.83631 34.2515C9.45057 34.5706 9.00769 34.8171 8.50766 34.9911C8.00763 35.1651 7.49331 35.2522 6.96471 35.2522C6.56468 35.2522 6.19323 35.1869 5.85035 35.0564C5.50747 34.9259 5.20746 34.7446 4.9503 34.5126C4.69314 34.266 4.49313 33.976 4.35026 33.6424C4.2074 33.2944 4.13596 32.9101 4.13596 32.4895C4.13596 31.6049 4.41455 30.8436 4.97173 30.2055C5.5289 29.5529 6.25038 29.0018 7.13614 28.5523C8.02191 28.1027 9.01483 27.7402 10.1149 27.4646C11.2292 27.1746 12.3365 26.9498 13.4365 26.7903C14.5366 26.6308 15.5795 26.522 16.5653 26.464C17.5653 26.406 18.3868 26.377 19.0297 26.377C19.8298 26.377 20.5084 26.3552 21.0656 26.3117C21.637 26.2682 22.037 26.2464 22.2656 26.2464C22.3799 26.2464 22.5085 26.261 22.6514 26.29C22.7942 26.319 22.8657 26.3842 22.8657 26.4857C22.8657 26.6308 22.7942 26.7323 22.6514 26.7903C22.5085 26.8338 22.3728 26.8555 22.2442 26.8555C21.9013 26.8555 21.5656 26.841 21.237 26.812C20.9227 26.783 20.6441 26.754 20.4012 26.725C20.1726 26.7685 19.8369 26.899 19.394 27.1166C18.9511 27.3196 18.5511 27.5734 18.194 27.8779C17.4653 28.516 16.8367 29.1686 16.3081 29.8357C15.7938 30.4883 15.3224 31.1771 14.8938 31.9022C14.4652 32.6128 14.0437 33.3669 13.6294 34.1645C13.2151 34.9476 12.7508 35.7815 12.2365 36.6661C11.8364 37.3477 11.3721 38.022 10.8435 38.6891C10.3292 39.3417 9.72916 39.929 9.0434 40.4511C8.37193 40.9587 7.6076 41.372 6.75041 41.691C5.89321 42.0101 4.92887 42.1696 3.85738 42.1696C3.42878 42.1696 2.98589 42.1261 2.52872 42.0391C2.08584 41.9521 1.67153 41.7998 1.28579 41.5823C0.914341 41.3647 0.607179 41.0819 0.364308 40.7339C0.121436 40.3713 0 39.929 0 39.407C0 39.0154 0.107149 38.6601 0.321448 38.3411C0.535747 38.0075 0.857195 37.8408 1.28579 37.8408C1.58581 37.8408 1.84297 37.9495 2.05727 38.167C2.27157 38.3701 2.37871 38.6239 2.37871 38.9284C2.37871 39.2039 2.30014 39.4142 2.14299 39.5592C1.98583 39.7043 1.78582 39.7985 1.54295 39.842C1.55724 40.6106 1.75011 41.1472 2.12156 41.4517C2.49301 41.7563 3.02875 41.9086 3.7288 41.9086C4.44313 41.9086 5.10031 41.7635 5.70034 41.4735C6.31467 41.1835 6.87184 40.7992 7.37187 40.3206C7.88619 39.8275 8.35765 39.2764 8.78624 38.6674C9.22913 38.0583 9.62915 37.4347 9.98632 36.7966C10.3578 36.1585 10.7006 35.5349 11.015 34.9259C11.3293 34.3168 11.6293 33.7802 11.915 33.3161C12.4579 32.417 12.9794 31.6339 13.4794 30.9668C13.9794 30.2997 14.5294 29.7124 15.1295 29.2048C15.7438 28.6828 16.4296 28.226 17.1868 27.8344C17.9582 27.4284 18.8726 27.0441 19.9298 26.6815V26.638C19.244 26.638 18.4225 26.667 17.4653 26.725C16.5081 26.7685 15.5081 26.8628 14.4652 27.0078C13.4365 27.1528 12.4079 27.3631 11.3793 27.6386C10.3649 27.8997 9.45057 28.255 8.63624 28.7045C7.83619 29.1396 7.18615 29.6834 6.68612 30.336C6.18609 30.9741 5.93607 31.7354 5.93607 32.6201C5.93607 33.2291 6.10037 33.7367 6.42896 34.1428C6.77184 34.5343 7.24329 34.7301 7.84333 34.7301C8.24335 34.7301 8.62195 34.6431 8.97911 34.4691C9.33628 34.2805 9.65058 34.0412 9.92203 33.7512C10.2078 33.4467 10.4292 33.1131 10.5864 32.7506C10.7578 32.3735 10.8435 31.9965 10.8435 31.6194C10.8435 31.4019 10.8149 31.1916 10.7578 30.9886C10.7006 30.7856 10.6221 30.5825 10.5221 30.3795L10.7364 30.2925ZM23.1871 36.2745C22.9871 36.5646 22.7299 36.9199 22.4156 37.3404C22.1013 37.7465 21.7513 38.1743 21.3656 38.6239C20.9941 39.0734 20.587 39.523 20.1441 39.9725C19.7155 40.4221 19.2726 40.8209 18.8154 41.169C18.3582 41.517 17.8939 41.7925 17.4225 41.9956C16.9653 42.2131 16.5224 42.3146 16.0938 42.3001C15.5938 42.3001 15.1866 42.1406 14.8723 41.8215C14.558 41.488 14.4009 41.0747 14.4009 40.5816C14.4009 40.1176 14.4937 39.6607 14.6795 39.2112C14.8795 38.7471 15.1009 38.2831 15.3438 37.819C15.5724 37.3694 15.7795 36.9416 15.9652 36.5356C16.1653 36.115 16.2653 35.738 16.2653 35.4044C16.2653 34.9404 16.151 34.6141 15.9224 34.4255C15.7081 34.2225 15.3938 34.121 14.9795 34.121C14.908 34.121 14.8295 34.1283 14.7437 34.1428C14.658 34.1573 14.5723 34.1645 14.4866 34.1645C14.4437 34.1645 14.3866 34.1645 14.3151 34.1645C14.258 34.15 14.2294 34.1065 14.2294 34.034C14.2294 33.9615 14.2723 33.9107 14.358 33.8817C14.458 33.8527 14.5437 33.8382 14.6152 33.8382C14.7723 33.8382 14.9223 33.8527 15.0652 33.8817C15.2223 33.8962 15.3795 33.9035 15.5367 33.9035C16.251 33.9035 16.901 33.7222 17.4868 33.3597C18.0868 32.9826 18.6654 32.5185 19.2226 31.9675C19.7798 31.4164 20.3369 30.8218 20.8941 30.1837C21.4656 29.5456 22.0728 28.9511 22.7157 28.4C23.3586 27.8489 24.0657 27.3921 24.8372 27.0296C25.623 26.6525 26.5016 26.464 27.4731 26.464C27.7588 26.464 28.0303 26.493 28.2874 26.551C28.5589 26.609 28.7946 26.7033 28.9946 26.8338C29.1946 26.9643 29.3589 27.1311 29.4875 27.3341C29.6161 27.5371 29.6804 27.7764 29.6804 28.0519C29.6804 28.371 29.6232 28.6393 29.5089 28.8568C29.3946 29.0743 29.2375 29.2484 29.0375 29.3789C28.8517 29.5094 28.6303 29.5964 28.3731 29.6399C28.116 29.6834 27.8517 29.7052 27.5802 29.7052C27.6945 29.4006 27.8017 29.0961 27.9017 28.7915C28.0017 28.4725 28.0517 28.1462 28.0517 27.8127C28.0517 27.4646 27.9731 27.1963 27.816 27.0078C27.6731 26.8193 27.4231 26.725 27.0659 26.725C26.6516 26.725 26.2444 26.9063 25.8444 27.2688C25.4444 27.6314 25.0158 28.0882 24.5586 28.6393C24.1157 29.1758 23.6157 29.7632 23.0585 30.4013C22.5156 31.0393 21.887 31.6339 21.1727 32.185C20.4584 32.7216 19.644 33.1711 18.7297 33.5337C17.8296 33.8962 16.7939 34.0775 15.6224 34.0775V34.121C16.2653 34.382 16.7367 34.7228 17.0367 35.1434C17.351 35.5639 17.5082 36.1078 17.5082 36.7749C17.5082 37.1374 17.4368 37.529 17.2939 37.9495C17.1653 38.3701 17.0153 38.7834 16.8439 39.1894C16.6867 39.581 16.5367 39.958 16.3938 40.3206C16.2653 40.6686 16.201 40.9659 16.201 41.2125C16.201 41.6765 16.3796 41.9086 16.7367 41.9086C16.8939 41.9086 17.1153 41.8433 17.4011 41.7128C17.6868 41.5823 18.0225 41.3792 18.4083 41.1037C18.8083 40.8137 19.2512 40.4439 19.7369 39.9943C20.2226 39.5447 20.7441 38.9937 21.3013 38.3411C21.687 37.877 22.0085 37.471 22.2656 37.1229C22.5371 36.7749 22.7942 36.4413 23.0371 36.1223L23.1871 36.2745Z" fill="#31211A" fill-opacity="0.9"/>
<path d="M29.5138 34.4255L31.7425 34.295C31.6139 34.5561 31.4282 34.8751 31.1853 35.2522C30.9424 35.6147 30.6781 36.0135 30.3924 36.4486C30.1067 36.8691 29.8138 37.3114 29.5138 37.7755C29.228 38.2251 28.9637 38.6674 28.7209 39.1024C28.478 39.523 28.278 39.9218 28.1208 40.2988C27.978 40.6614 27.9065 40.9732 27.9065 41.2342C27.9065 41.5968 28.0851 41.778 28.4423 41.778C28.7852 41.778 29.2495 41.575 29.8352 41.169C30.421 40.7629 31.0353 40.2263 31.6782 39.5592C31.9496 39.2837 32.2211 38.9864 32.4925 38.6674C32.7783 38.3483 33.0497 38.0365 33.3069 37.732C33.564 37.4129 33.7998 37.1229 34.014 36.8619C34.2283 36.5863 34.3998 36.3616 34.5284 36.1875L34.6784 36.2745C34.3069 36.7821 33.8783 37.3477 33.3926 37.9713C32.9068 38.5804 32.3211 39.2329 31.6353 39.929C30.9496 40.6251 30.271 41.198 29.5995 41.6475C28.9423 42.0826 28.2851 42.3001 27.6279 42.3001C27.1708 42.3001 26.8136 42.1841 26.5565 41.9521C26.3136 41.7055 26.1921 41.4082 26.1921 41.0602C26.1921 40.9442 26.1993 40.8354 26.2136 40.7339C26.2279 40.6324 26.2493 40.5526 26.2779 40.4946H26.235C25.7921 41.0022 25.2921 41.43 24.7349 41.778C24.1777 42.1261 23.5777 42.3001 22.9348 42.3001C22.5919 42.3001 22.2991 42.2348 22.0562 42.1043C21.8133 41.9738 21.6133 41.7998 21.4561 41.5823C21.3133 41.3502 21.2061 41.0964 21.1347 40.8209C21.0633 40.5309 21.0275 40.2336 21.0275 39.929C21.0275 39.2184 21.2204 38.5078 21.6062 37.7972C21.9919 37.0867 22.4776 36.4486 23.0634 35.883C23.6491 35.3029 24.2992 34.8389 25.0135 34.4908C25.7421 34.1283 26.435 33.947 27.0922 33.947C27.5922 33.947 27.9851 34.0557 28.2708 34.2733C28.5566 34.4908 28.7923 34.8316 28.978 35.2957L29.5138 34.4255ZM23.0848 39.9943C23.0848 40.4148 23.1491 40.7846 23.2777 41.1037C23.4206 41.4082 23.7134 41.5605 24.1563 41.5605C24.4563 41.546 24.7706 41.4227 25.0992 41.1907C25.4278 40.9442 25.7421 40.6396 26.0421 40.2771C26.3564 39.9145 26.6493 39.5157 26.9208 39.0807C27.2065 38.6311 27.4494 38.1815 27.6494 37.732C27.8637 37.2824 28.028 36.8619 28.1423 36.4703C28.2708 36.0643 28.3351 35.7235 28.3351 35.4479C28.3351 35.0564 28.2637 34.7518 28.1208 34.5343C27.978 34.3168 27.6994 34.208 27.2851 34.208C26.9565 34.208 26.6207 34.3095 26.2779 34.5126C25.9493 34.7156 25.6278 34.9839 25.3135 35.3174C25.0135 35.651 24.7206 36.028 24.4349 36.4486C24.1635 36.8546 23.9277 37.2752 23.7277 37.7102C23.5277 38.1453 23.3705 38.5659 23.2563 38.9719C23.142 39.3635 23.0848 39.7043 23.0848 39.9943Z" fill="#31211A" fill-opacity="0.9"/>
<path d="M46.0267 36.3616C45.6552 36.8691 45.248 37.2317 44.8052 37.4492C44.3766 37.6522 43.9551 37.7537 43.5408 37.7537C43.2122 37.7537 42.8979 37.6812 42.5979 37.5362C42.3121 37.3912 42.0693 37.2317 41.8693 37.0577C41.6121 37.9278 41.2407 38.6891 40.7549 39.3417C40.2835 39.9943 39.7477 40.5381 39.1477 40.9732C38.5619 41.4082 37.9262 41.7345 37.2404 41.9521C36.5689 42.1841 35.9046 42.3001 35.2474 42.3001C34.5188 42.3001 33.9474 42.0971 33.533 41.691C33.1187 41.285 32.9116 40.7629 32.9116 40.1248C32.9116 39.8493 32.9402 39.581 32.9973 39.32C33.0687 39.0444 33.1902 38.7326 33.3616 38.3846C33.4759 38.167 33.6259 37.877 33.8116 37.5145C34.0117 37.1519 34.1902 36.8474 34.3474 36.6008L37.2833 31.9457C37.769 31.1626 38.3048 30.4738 38.8905 29.8792C39.4763 29.2846 40.1263 28.7408 40.8406 28.2477C41.5264 27.7837 42.1621 27.4284 42.7479 27.1818C43.3336 26.9353 43.848 26.812 44.2908 26.812C44.4908 26.812 44.698 26.8265 44.9123 26.8555C45.1409 26.87 45.3552 26.9208 45.5552 27.0078C45.9838 27.1963 46.1981 27.4791 46.1981 27.8562C46.1981 28.2767 46.0767 28.69 45.8338 29.0961C45.5909 29.4876 45.148 29.9444 44.5051 30.4665C43.7337 31.0756 43.0336 31.5759 42.405 31.9675C41.7764 32.359 41.1835 32.7578 40.6263 33.1639C40.5549 33.2219 40.4478 33.2944 40.3049 33.3814C40.1763 33.4684 40.0263 33.5699 39.8549 33.6859C39.6834 33.802 39.4977 33.9252 39.2977 34.0557C39.112 34.1718 38.9262 34.295 38.7405 34.4255C38.2976 34.7156 37.8262 35.0274 37.3261 35.3609L36.2761 36.9706C36.1046 37.2317 35.9046 37.558 35.676 37.9495C35.4474 38.3411 35.2689 38.6819 35.1403 38.9719C34.9117 39.436 34.7546 39.8348 34.6688 40.1683C34.5831 40.4874 34.5403 40.7484 34.5403 40.9514C34.5403 41.2995 34.626 41.5678 34.7974 41.7563C34.9688 41.9448 35.1974 42.0391 35.4832 42.0391C35.8975 42.0391 36.3904 41.836 36.9618 41.43C37.5476 41.0094 38.1333 40.3423 38.7191 39.4287C39.5191 38.1525 39.9834 37.0214 40.112 36.0353C39.9549 35.7162 39.8763 35.4189 39.8763 35.1434C39.8763 34.7808 39.9692 34.4908 40.1549 34.2733C40.3406 34.0557 40.562 33.947 40.8192 33.947C41.2621 33.947 41.5764 34.121 41.7621 34.4691C41.9621 34.8026 42.0621 35.2449 42.0621 35.796C42.0621 35.9555 42.0478 36.115 42.0193 36.2745C41.9907 36.4341 41.9621 36.6008 41.9336 36.7749C42.1764 36.9924 42.4407 37.1664 42.7265 37.2969C43.0122 37.4274 43.3122 37.4927 43.6265 37.4927C43.9551 37.4927 44.3123 37.4057 44.698 37.2317C45.098 37.0576 45.4909 36.7241 45.8766 36.231L46.0267 36.3616ZM37.6047 34.7953L37.6476 34.8171C38.0333 34.5561 38.4119 34.3023 38.7834 34.0557C39.0977 33.8527 39.412 33.6497 39.7263 33.4467C40.0406 33.2291 40.2835 33.0551 40.4549 32.9246C40.9549 32.5765 41.4407 32.1922 41.9121 31.7717C42.3836 31.3366 42.805 30.8871 43.1765 30.423C43.6051 29.9299 43.9194 29.4586 44.1194 29.0091C44.3337 28.5595 44.4408 28.139 44.4408 27.7474C44.4408 27.3268 44.2837 27.1166 43.9694 27.1166C43.7122 27.1166 43.4622 27.1891 43.2193 27.3341C42.9908 27.4646 42.7336 27.6749 42.4479 27.9649C42.2764 28.139 42.0979 28.3492 41.9121 28.5958C41.7264 28.8278 41.5407 29.0743 41.3549 29.3354C41.1692 29.5819 40.9978 29.8284 40.8406 30.075C40.6978 30.307 40.5763 30.4955 40.4763 30.6405L37.6047 34.7953Z" fill="#31211A" fill-opacity="0.9"/>
<path d="M46.3645 33.5554C46.7931 33.4829 47.2217 33.3814 47.6503 33.2509C48.0789 33.1204 48.4718 32.9463 48.8289 32.7288C49.1861 32.4968 49.4861 32.2067 49.729 31.8587C49.9862 31.5107 50.1576 31.0901 50.2433 30.597C50.1719 30.6115 50.0933 30.6333 50.0076 30.6623C49.9219 30.6768 49.8362 30.684 49.7504 30.684C49.4933 30.684 49.2861 30.6043 49.129 30.4448C48.9718 30.2707 48.8932 30.0532 48.8932 29.7922C48.8932 29.4731 48.979 29.2121 49.1504 29.0091C49.3361 28.7915 49.6004 28.6828 49.9433 28.6828C50.3576 28.6828 50.6791 28.8205 50.9076 29.0961C51.1362 29.3716 51.2505 29.7124 51.2505 30.1185C51.2505 30.684 51.0791 31.1844 50.7362 31.6194C50.4076 32.0545 49.9933 32.4243 49.4933 32.7288C49.0075 33.0189 48.4789 33.2509 47.9075 33.4249C47.3503 33.5989 46.836 33.715 46.3645 33.773V33.5554Z" fill="#31211A" fill-opacity="0.9"/>
<path d="M48.7364 40.8427C48.7364 41.1327 48.8292 41.3865 49.0149 41.604C49.2007 41.807 49.465 41.9086 49.8079 41.9086C50.2365 41.9086 50.6365 41.7925 51.0079 41.5605C51.3937 41.314 51.7365 41.0674 52.0366 40.8209C52.2937 40.6034 52.5866 40.2916 52.9152 39.8855C53.2581 39.4795 53.5724 39.0734 53.8581 38.6674C53.6438 38.7979 53.3724 38.9212 53.0438 39.0372C52.7295 39.1532 52.408 39.2112 52.0794 39.2112C51.5937 39.2112 51.2008 39.0879 50.9008 38.8414C50.6151 38.5804 50.4722 38.2106 50.4722 37.732C50.4722 37.2389 50.6151 36.7749 50.9008 36.3398C51.1865 35.9047 51.5508 35.4987 51.9937 35.1216C52.4366 34.7446 52.9295 34.4546 53.4724 34.2515C54.0153 34.0485 54.5296 33.947 55.0153 33.947C55.4725 33.947 55.8439 34.0702 56.1297 34.3168C56.4297 34.5633 56.644 34.8896 56.7726 35.2957L57.3083 34.4255L59.537 34.295C59.4084 34.5561 59.237 34.8461 59.0227 35.1651C58.8227 35.4842 58.6084 35.8177 58.3798 36.1658C58.1512 36.4993 57.9155 36.8401 57.6726 37.1882C57.444 37.5362 57.2369 37.8698 57.0512 38.1888C56.794 38.6094 56.5797 38.9792 56.4083 39.2982C56.2368 39.6027 56.094 39.8783 55.9797 40.1248C55.8797 40.3568 55.8082 40.5599 55.7654 40.7339C55.7225 40.9079 55.7011 41.0747 55.7011 41.2342C55.7011 41.4372 55.7511 41.5823 55.8511 41.6693C55.9654 41.7418 56.0868 41.778 56.2154 41.778C56.544 41.778 57.0297 41.5678 57.6726 41.1472C58.3298 40.7121 59.137 39.958 60.0942 38.8849C60.4228 38.5078 60.7728 38.1018 61.1443 37.6667C61.53 37.2172 61.9229 36.7241 62.3229 36.1875L62.4729 36.2745C62.0729 36.8111 61.6871 37.3114 61.3157 37.7755C60.9585 38.2396 60.6014 38.6674 60.2442 39.0589C59.2584 40.1611 58.3798 40.9804 57.6083 41.517C56.8369 42.0391 56.1225 42.3001 55.4653 42.3001C55.0082 42.3001 54.6439 42.1913 54.3724 41.9738C54.1153 41.7563 53.9867 41.4372 53.9867 41.0167C53.9867 40.7266 54.0295 40.4439 54.1153 40.1683C54.2153 39.8928 54.3653 39.5665 54.5653 39.1894L55.1868 37.993C55.101 38.051 55.0082 38.109 54.9082 38.167C54.8224 38.2251 54.7296 38.2831 54.6296 38.3411C54.5296 38.3991 54.4224 38.4571 54.3081 38.5151C54.0367 38.8631 53.7224 39.2764 53.3652 39.755C53.0223 40.2191 52.6437 40.6251 52.2294 40.9732C51.8437 41.3067 51.4294 41.5895 50.9865 41.8215C50.5436 42.0536 50.0722 42.1696 49.5721 42.1696C49.3007 42.1696 49.0435 42.1406 48.8007 42.0826C48.5435 42.0246 48.3078 41.9158 48.0935 41.7563C47.8935 41.5968 47.7292 41.401 47.6006 41.169C47.472 40.9224 47.4077 40.6541 47.4077 40.3641C47.4077 39.958 47.522 39.61 47.7506 39.32C47.9649 39.0299 48.3006 38.8849 48.7578 38.8849C49.0292 38.8849 49.2507 38.9792 49.4221 39.1677C49.5936 39.3417 49.6793 39.5592 49.6793 39.8203C49.6793 40.0668 49.5936 40.2988 49.4221 40.5164C49.265 40.7339 49.0364 40.8427 48.7364 40.8427ZM53.3009 38.4498C53.7295 38.4498 54.1153 38.3483 54.4581 38.1453C54.8153 37.9278 55.1296 37.645 55.4011 37.2969C55.6296 37.0069 55.8082 36.7096 55.9368 36.4051C56.0654 36.086 56.1297 35.767 56.1297 35.4479C56.1297 35.0854 56.0297 34.7881 55.8296 34.5561C55.6296 34.324 55.3653 34.208 55.0367 34.208C54.6653 34.208 54.3153 34.3023 53.9867 34.4908C53.6581 34.6648 53.3795 34.8824 53.1509 35.1434C52.8652 35.4769 52.6366 35.8322 52.4652 36.2093C52.308 36.5718 52.2294 36.9199 52.2294 37.2534C52.2294 37.6305 52.3294 37.9278 52.5294 38.1453C52.7295 38.3483 52.9866 38.4498 53.3009 38.4498Z" fill="#31211A" fill-opacity="0.9"/>
<path d="M68.1473 29.9444L63.197 37.6015L63.2399 37.645C63.5399 37.2824 63.8542 36.8836 64.1828 36.4486C64.5257 36.0135 64.89 35.6147 65.2757 35.2522C65.6757 34.8751 66.0972 34.5633 66.5401 34.3168C66.9972 34.0702 67.4901 33.947 68.0187 33.947C68.533 33.947 68.9473 34.121 69.2617 34.4691C69.576 34.8026 69.7331 35.2449 69.7331 35.796C69.7331 36.5066 69.5831 37.1809 69.2831 37.819C68.9831 38.4571 68.6188 39.0082 68.1902 39.4722L68.233 39.5157C68.7188 39.4142 69.1902 39.2547 69.6474 39.0372C70.1189 38.8051 70.5689 38.5368 70.9975 38.2323C71.4261 37.9133 71.8261 37.5725 72.1975 37.2099C72.569 36.8329 72.9047 36.4558 73.2048 36.0788L73.3548 36.231C73.0833 36.5791 72.7619 36.9416 72.3904 37.3187C72.019 37.6957 71.6047 38.0583 71.1475 38.4063C70.7046 38.7399 70.2117 39.0372 69.6688 39.2982C69.1402 39.5447 68.5759 39.7188 67.9759 39.8203C67.6901 40.0813 67.3687 40.3568 67.0115 40.6469C66.6544 40.9369 66.2758 41.2052 65.8757 41.4517C65.4757 41.6983 65.0685 41.9013 64.6542 42.0608C64.2399 42.2203 63.8328 42.3001 63.4327 42.3001C63.1327 42.3001 62.8684 42.2348 62.6398 42.1043C62.4255 41.9883 62.3184 41.7853 62.3184 41.4952C62.3184 41.1907 62.4612 40.9442 62.747 40.7556C63.047 40.5526 63.4042 40.3931 63.8185 40.2771C64.2328 40.1466 64.6614 40.0451 65.1043 39.9725C65.5614 39.9 65.94 39.842 66.24 39.7985C66.3686 39.6245 66.5115 39.407 66.6686 39.1459C66.8401 38.8704 66.9972 38.5658 67.1401 38.2323C67.2972 37.8988 67.4258 37.5435 67.5258 37.1664C67.6258 36.7749 67.6758 36.3761 67.6758 35.97C67.6758 35.8105 67.6616 35.6582 67.633 35.5132C67.6187 35.3537 67.5758 35.2159 67.5044 35.0999C67.4473 34.9694 67.3615 34.8679 67.2472 34.7953C67.133 34.7228 66.9829 34.6866 66.7972 34.6866C66.3686 34.6866 65.8686 34.9694 65.2971 35.5349C64.7257 36.1005 64.1185 36.8329 63.4756 37.732C62.8327 38.6166 62.1755 39.61 61.504 40.7121C60.8469 41.7998 60.2111 42.8657 59.5968 43.9098C58.9825 44.9685 58.4253 45.9401 57.9253 46.8247C57.4109 47.7238 56.9895 48.4199 56.6609 48.913L54.3893 49C56.3037 45.8676 58.2181 42.7134 60.1325 39.5375C62.0326 36.3616 63.9328 33.2001 65.8329 30.0532L68.1473 29.9444ZM63.1327 41.43C63.1327 41.749 63.3327 41.9086 63.7327 41.9086C63.9328 41.9086 64.1399 41.8433 64.3542 41.7128C64.5828 41.5823 64.8042 41.43 65.0185 41.256C65.2328 41.0674 65.4329 40.8717 65.6186 40.6686C65.8043 40.4511 65.9615 40.2553 66.09 40.0813C65.9043 40.1103 65.64 40.1538 65.2971 40.2118C64.9685 40.2698 64.6399 40.3496 64.3114 40.4511C63.9971 40.5381 63.7185 40.6614 63.4756 40.8209C63.247 40.9804 63.1327 41.1835 63.1327 41.43Z" fill="#31211A" fill-opacity="0.9"/>
<path d="M84.2507 36.2093C83.7506 36.8619 83.2792 37.4565 82.8363 37.993C82.3934 38.5151 81.9791 38.9864 81.5934 39.407C80.6505 40.4366 79.8504 41.1544 79.1932 41.5605C78.536 41.9666 77.9431 42.1696 77.4145 42.1696C77.0431 42.1696 76.7074 42.0753 76.4073 41.8868C76.1073 41.6838 75.9573 41.3285 75.9573 40.8209C75.9573 40.5744 75.993 40.3133 76.0645 40.0378C76.1502 39.7623 76.2573 39.494 76.3859 39.2329C76.5145 38.9574 76.6502 38.6891 76.7931 38.4281C76.8931 38.2686 76.9859 38.1163 77.0717 37.9713H73.8143L73.7929 38.0148C73.5357 38.4498 73.2786 38.8994 73.0214 39.3635C72.7785 39.813 72.5571 40.2263 72.3571 40.6034C72.1285 41.0529 71.9142 41.4807 71.7142 41.8868L69.4212 42.0173L73.9429 34.295L76.2145 34.208C75.8573 34.7591 75.5216 35.2739 75.2073 35.7525C74.9358 36.173 74.6644 36.5936 74.3929 37.0141C74.2358 37.2897 74.0929 37.5217 73.9643 37.7102H77.2431C77.286 37.6232 77.3574 37.5 77.4574 37.3404C77.5574 37.1664 77.6646 36.9924 77.7789 36.8184C77.9074 36.6153 78.036 36.4051 78.1646 36.1875C78.436 35.767 78.6503 35.4189 78.8075 35.1434C78.9646 34.8679 79.1146 34.6141 79.2575 34.382L81.4648 34.208L80.0076 36.5573C79.7075 37.0504 79.429 37.4927 79.1718 37.8843C78.9289 38.2758 78.7146 38.6311 78.5289 38.9502C78.3146 39.2982 78.1432 39.5955 78.0146 39.842C77.9003 40.0886 77.8074 40.3061 77.736 40.4946C77.6788 40.6686 77.636 40.8209 77.6074 40.9514C77.5931 41.0674 77.586 41.1689 77.586 41.256C77.586 41.4155 77.6074 41.546 77.6503 41.6475C77.7074 41.7345 77.8289 41.778 78.0146 41.778C78.286 41.778 78.7075 41.5823 79.2789 41.1907C79.8647 40.7846 80.5862 40.1248 81.4434 39.2112C81.8291 38.7906 82.2505 38.3121 82.7077 37.7755C83.1792 37.2244 83.6364 36.6588 84.0792 36.0788L84.2507 36.2093Z" fill="#31211A" fill-opacity="0.9"/>
<path d="M81.7275 40.8427C81.7275 41.1327 81.8203 41.3865 82.0061 41.604C82.1918 41.807 82.4561 41.9086 82.799 41.9086C83.2276 41.9086 83.6276 41.7925 83.999 41.5605C84.3848 41.314 84.7276 41.0674 85.0277 40.8209C85.2848 40.6034 85.5777 40.2916 85.9063 39.8855C86.2492 39.4795 86.5635 39.0734 86.8492 38.6674C86.6349 38.7979 86.3635 38.9212 86.0349 39.0372C85.7206 39.1532 85.3991 39.2112 85.0705 39.2112C84.5848 39.2112 84.1919 39.0879 83.8919 38.8414C83.6062 38.5804 83.4633 38.2106 83.4633 37.732C83.4633 37.2389 83.6062 36.7749 83.8919 36.3398C84.1776 35.9047 84.5419 35.4987 84.9848 35.1216C85.4277 34.7446 85.9206 34.4546 86.4635 34.2515C87.0064 34.0485 87.5207 33.947 88.0064 33.947C88.4636 33.947 88.835 34.0702 89.1208 34.3168C89.4208 34.5633 89.6351 34.8896 89.7637 35.2957L90.2994 34.4255L92.5281 34.295C92.3995 34.5561 92.2281 34.8461 92.0138 35.1651C91.8138 35.4842 91.5995 35.8177 91.3709 36.1658C91.1423 36.4993 90.9066 36.8401 90.6637 37.1882C90.4351 37.5362 90.228 37.8698 90.0423 38.1888C89.7851 38.6094 89.5708 38.9792 89.3994 39.2982C89.2279 39.6027 89.0851 39.8783 88.9708 40.1248C88.8708 40.3568 88.7993 40.5599 88.7565 40.7339C88.7136 40.9079 88.6922 41.0747 88.6922 41.2342C88.6922 41.4372 88.7422 41.5823 88.8422 41.6693C88.9565 41.7418 89.0779 41.778 89.2065 41.778C89.5351 41.778 90.0208 41.5678 90.6637 41.1472C91.3209 40.7121 92.1281 39.958 93.0853 38.8849C93.4139 38.5078 93.7639 38.1018 94.1354 37.6667C94.5211 37.2172 94.914 36.7241 95.314 36.1875L95.464 36.2745C95.064 36.8111 94.6783 37.3114 94.3068 37.7755C93.9496 38.2396 93.5925 38.6674 93.2353 39.0589C92.2495 40.1611 91.3709 40.9804 90.5994 41.517C89.828 42.0391 89.1136 42.3001 88.4565 42.3001C87.9993 42.3001 87.635 42.1913 87.3635 41.9738C87.1064 41.7563 86.9778 41.4372 86.9778 41.0167C86.9778 40.7266 87.0206 40.4439 87.1064 40.1683C87.2064 39.8928 87.3564 39.5665 87.5564 39.1894L88.1779 37.993C88.0921 38.051 87.9993 38.109 87.8993 38.167C87.8135 38.2251 87.7207 38.2831 87.6207 38.3411C87.5207 38.3991 87.4135 38.4571 87.2992 38.5151C87.0278 38.8631 86.7135 39.2764 86.3563 39.755C86.0134 40.2191 85.6348 40.6251 85.2205 40.9732C84.8348 41.3067 84.4205 41.5895 83.9776 41.8215C83.5347 42.0536 83.0633 42.1696 82.5632 42.1696C82.2918 42.1696 82.0346 42.1406 81.7918 42.0826C81.5346 42.0246 81.2989 41.9158 81.0846 41.7563C80.8846 41.5968 80.7203 41.401 80.5917 41.169C80.4631 40.9224 80.3988 40.6541 80.3988 40.3641C80.3988 39.958 80.5131 39.61 80.7417 39.32C80.956 39.0299 81.2917 38.8849 81.7489 38.8849C82.0203 38.8849 82.2418 38.9792 82.4132 39.1677C82.5847 39.3417 82.6704 39.5592 82.6704 39.8203C82.6704 40.0668 82.5847 40.2988 82.4132 40.5164C82.2561 40.7339 82.0275 40.8427 81.7275 40.8427ZM86.292 38.4498C86.7206 38.4498 87.1064 38.3483 87.4492 38.1453C87.8064 37.9278 88.1207 37.645 88.3922 37.2969C88.6207 37.0069 88.7993 36.7096 88.9279 36.4051C89.0565 36.086 89.1208 35.767 89.1208 35.4479C89.1208 35.0854 89.0208 34.7881 88.8208 34.5561C88.6207 34.324 88.3564 34.208 88.0278 34.208C87.6564 34.208 87.3064 34.3023 86.9778 34.4908C86.6492 34.6648 86.3706 34.8824 86.142 35.1434C85.8563 35.4769 85.6277 35.8322 85.4563 36.2093C85.2991 36.5718 85.2205 36.9199 85.2205 37.2534C85.2205 37.6305 85.3205 37.9278 85.5206 38.1453C85.7206 38.3483 85.9777 38.4498 86.292 38.4498Z" fill="#31211A" fill-opacity="0.9"/>
</svg>
